# xmcd
#
# Track frame offsets: 
#        150
#        11950
#        22237
#        34845
#        46365
#        58300
#        71487
#        84085
#        94787
#        106910
#        117990
#        131342
#        145510
#        159757
#
# Disc length: 2318 seconds
#
# Revision: 0
# Processed by: cddbd v1.5.1PL0 Copyright (c) Steve Scherf et al.
# Submitted via: ExactAudioCopy v0.95a5
#
DISCID=b4090c0e
DTITLE=Bo, Eddie - The Best of Eddie Bo
DYEAR=1900
DGENRE=Funk
TTITLE0=Hook and Sling Part 1
TTITLE1=Hook and Sling Part 2
TTITLE2=Can You Handle It
TTITLE3=If It's Good to You (It's Good for You) Part 1
TTITLE4=If It's Good to You (It's Good for You) Part 2
TTITLE5=Getting to the Middle (instrumental)
TTITLE6=Check Your Bucket Part 1
TTITLE7=Check Your Bucket Part 2
TTITLE8=Getting to the Middle (vocal)
TTITLE9=Don't Turn Me Loose
TTITLE10=We're Doing It Part 1
TTITLE11=We're Doing It Part 2
TTITLE12=Disco Party Part 1
TTITLE13=Disco Party Part 2
EXTD=
EXTT0=
EXTT1=
EXTT2=
EXTT3=
EXTT4=
EXTT5=
EXTT6=
EXTT7=
EXTT8=
EXTT9=
EXTT10=
EXTT11=
EXTT12=
EXTT13=
PLAYORDER=
